<svg width="18" height="18" viewBox="0 0 18 18" fill="none" xmlns="http://www.w3.org/2000/svg">
<g clip-path="url(#clip0_29_232)">
<path d="M16.3125 15.1875H1.6875C0.757125 15.1875 0 14.4304 0 13.5V4.5C0 3.56962 0.757125 2.8125 1.6875 2.8125H16.3125C17.2429 2.8125 18 3.56962 18 4.5V13.5C18 14.4304 17.2429 15.1875 16.3125 15.1875ZM1.6875 14.0625H16.3125C16.6224 14.0625 16.875 13.8105 16.875 13.5V4.67831L9.36619 11.1144C9.26044 11.205 9.1305 11.25 9 11.25C8.8695 11.25 8.73956 11.205 8.63381 11.1144L1.125 4.67831V13.5C1.125 13.8105 1.37756 14.0625 1.6875 14.0625ZM16.011 3.9375H1.989L9 9.94669L16.011 3.9375Z" fill="#9CA3AF"/>
</g>
<defs>
<clipPath id="clip0_29_232">
<rect width="18" height="18" fill="white"/>
</clipPath>
</defs>
</svg>
