<svg width="18" height="18" viewBox="0 0 18 18" fill="none" xmlns="http://www.w3.org/2000/svg">
<path d="M16.2129 7.37847H14.426V3.94004C14.426 1.76748 11.9918 0 9.00005 0C6.00815 0 3.57405 1.76748 3.57405 3.94004V7.37847H1.78707C0.801668 7.37847 0 7.96062 0 8.67612V16.7023C0 17.4179 0.801668 18 1.78707 18H16.2129C17.1983 18 18 17.4179 18 16.7023V8.67616C18 7.96062 17.1983 7.37847 16.2129 7.37847ZM4.76537 3.94004C4.76537 2.24456 6.66501 0.865127 9 0.865127C11.3349 0.865127 13.2346 2.24456 13.2346 3.94004V7.37847H4.76537V3.94004ZM16.8086 16.7024C16.8086 16.9409 16.5414 17.1349 16.2129 17.1349H1.78707C1.45862 17.1349 1.19137 16.9409 1.19137 16.7024V8.67616C1.19137 8.43766 1.45862 8.24359 1.78707 8.24359H16.2129C16.5414 8.24359 16.8086 8.43762 16.8086 8.67616V16.7024Z" fill="#9CA3AF"/>
</svg>
