<svg width="16" height="16" viewBox="0 0 16 16" fill="none" xmlns="http://www.w3.org/2000/svg">
<g clip-path="url(#clip0_29_107)">
<path d="M15.8094 8.1497C15.8094 7.49419 15.7562 7.01584 15.6411 6.51978H8.15576V9.47843H12.5495C12.4609 10.2137 11.9826 11.321 10.9195 12.0651L10.9046 12.1641L13.2714 13.9976L13.4353 14.0139C14.9412 12.6232 15.8094 10.5769 15.8094 8.1497Z" fill="#4086F4"/>
<path d="M8.15571 15.945C10.3083 15.945 12.1153 15.2363 13.4353 14.0139L10.9195 12.065C10.2463 12.5345 9.3427 12.8623 8.15571 12.8623C6.04743 12.8623 4.25806 11.4716 3.6202 9.54932L3.5267 9.55726L1.06575 11.4618L1.03357 11.5513C2.34459 14.1556 5.03754 15.945 8.15571 15.945Z" fill="#31AA52"/>
<path d="M3.62023 9.54936C3.45193 9.0533 3.35453 8.52176 3.35453 7.97257C3.35453 7.42332 3.45193 6.89184 3.61138 6.39577L3.60692 6.29013L1.11514 4.35498L1.03361 4.39376C0.493273 5.47449 0.183228 6.68811 0.183228 7.97257C0.183228 9.25703 0.493273 10.4706 1.03361 11.5513L3.62023 9.54936Z" fill="#FBBD01"/>
<path d="M8.15571 3.08269C9.65274 3.08269 10.6626 3.72934 11.2384 4.26974L13.4884 2.07285C12.1065 0.788397 10.3083 0 8.15571 0C5.03754 0 2.34459 1.78937 1.03357 4.39371L3.61134 6.39573C4.25806 4.47347 6.04743 3.08269 8.15571 3.08269Z" fill="#EF4444"/>
</g>
<defs>
<clipPath id="clip0_29_107">
<rect width="16" height="16" fill="white"/>
</clipPath>
</defs>
</svg>
