<svg width="40" height="40" viewBox="0 0 40 40" fill="none" xmlns="http://www.w3.org/2000/svg">
<rect width="40" height="40" rx="16" fill="#EFF6FF"/>
<path fill-rule="evenodd" clip-rule="evenodd" d="M28.3474 10.0746C29.1434 10.2343 29.7657 10.8565 29.9254 11.6525C30.0391 12.2229 30.0227 12.8115 29.8773 13.3747C29.732 13.9378 29.4614 14.4609 29.0859 14.905L26.0983 18.4365L28.2095 26.1804C28.2725 26.4113 28.2733 26.6548 28.2119 26.8861C28.1505 27.1174 28.029 27.3284 27.8598 27.4977L26.4458 28.9116C26.3257 29.0316 26.1794 29.1221 26.0184 29.1759C25.8574 29.2298 25.6861 29.2456 25.518 29.222C25.3499 29.1984 25.1895 29.1361 25.0495 29.0401C24.9096 28.944 24.7938 28.8167 24.7114 28.6683L21.5164 22.9171L18.4126 25.5028L18.6406 26.6463C18.6847 26.8655 18.674 27.0922 18.6094 27.3063C18.5448 27.5204 18.4283 27.7152 18.2703 27.8734L16.4632 29.6793C16.3402 29.8021 16.1899 29.8939 16.0245 29.9471C15.8592 30.0004 15.6835 30.0137 15.5121 29.9858C15.3406 29.9579 15.1782 29.8897 15.0382 29.7867C14.8983 29.6838 14.7848 29.5491 14.7071 29.3937L13.3387 26.6604L10.6063 25.2921C10.4509 25.2144 10.3162 25.1009 10.2133 24.961C10.1103 24.821 10.0421 24.6586 10.0142 24.4872C9.98634 24.3157 9.99958 24.1401 10.0529 23.9747C10.1061 23.8094 10.1979 23.659 10.3207 23.5361L12.1278 21.7291C12.2859 21.5712 12.4806 21.4548 12.6944 21.3902C12.9083 21.3256 13.1348 21.3148 13.3539 21.3588L14.4975 21.5868L17.0833 18.4843L11.3318 15.2883C11.1833 15.2059 11.0561 15.0901 10.96 14.9502C10.8639 14.8102 10.8016 14.6499 10.778 14.4818C10.7545 14.3137 10.7702 14.1424 10.8241 13.9814C10.878 13.8204 10.9685 13.6741 11.0885 13.554L12.5025 12.1401C12.6717 11.9709 12.8827 11.8494 13.1141 11.788C13.3454 11.7266 13.5889 11.7274 13.8198 11.7904L21.5631 13.9015L25.0959 10.9141C25.54 10.5385 26.0631 10.268 26.6262 10.1227C27.1894 9.97733 27.7781 9.96091 28.3485 10.0746H28.3474ZM27.8131 12.1868C27.5792 12.1558 27.3414 12.1739 27.1149 12.2401C26.8884 12.3063 26.6783 12.4191 26.4979 12.5712L22.534 15.9257C22.3981 16.0406 22.2364 16.1206 22.0627 16.159C21.889 16.1974 21.7086 16.193 21.537 16.1462L13.7036 14.009L13.6308 14.0807L19.2727 17.2148C19.4138 17.2932 19.5359 17.4018 19.6302 17.5328C19.7245 17.6638 19.7888 17.814 19.8183 17.9727C19.8479 18.1314 19.8421 18.2947 19.8012 18.4509C19.7604 18.6071 19.6856 18.7523 19.5822 18.8763L15.7551 23.4677C15.6287 23.6194 15.4637 23.7342 15.2776 23.7999C15.0914 23.8657 14.8909 23.8799 14.6973 23.8413L13.3539 23.573L12.9108 24.0161L14.6017 24.862C14.833 24.9776 15.0205 25.1651 15.1361 25.3963L15.9831 27.0872L16.4252 26.6441L16.1569 25.3008C16.1182 25.1072 16.1325 24.9067 16.1982 24.7205C16.264 24.5344 16.3788 24.3694 16.5305 24.2431L21.1232 20.4162C21.2472 20.3127 21.3925 20.2379 21.5487 20.1971C21.7049 20.1563 21.8681 20.1505 22.0268 20.18C22.1856 20.2096 22.3358 20.2738 22.4668 20.3681C22.5978 20.4625 22.7064 20.5845 22.7848 20.7257L25.918 26.3672L25.9897 26.2944L23.8535 18.4614C23.8068 18.2898 23.8025 18.1093 23.8411 17.9356C23.8797 17.762 23.96 17.6003 24.075 17.4645L27.4286 13.5008C27.7381 13.1349 27.8761 12.6581 27.8131 12.1868Z" fill="#3B82F6"/>
</svg>
